<?xml version="1.0" encoding="UTF-8"?>
<svg width="50" height="50" version="1.1" viewBox="0 0 13.229 13.229" xmlns="http://www.w3.org/2000/svg">
 <g stroke-width=".026713">
  <path d="m12.739 11.021-2.9736-2.9739c-0.44307 0.68907-1.0294 1.2751-1.7185 1.7182l2.9739 2.9739c0.47475 0.47465 1.2445 0.47465 1.7182 0 0.47478-0.47387 0.47478-1.2436 2.8e-5 -1.7182z"/>
  <path d="m9.8549 4.9943c0-2.6842-2.1763-4.8607-4.8606-4.8607-2.6842 0-4.8607 2.1764-4.8607 4.8607 0 2.6842 2.1764 4.8605 4.8607 4.8605s4.8606-2.1763 4.8606-4.8605zm-4.8606 3.6454c-2.0102 0-3.6455-1.6351-3.6455-3.6453s1.6352-3.6455 3.6455-3.6455c2.0102 0 3.6455 1.6352 3.6455 3.6455 0 2.0102-1.6353 3.6453-3.6455 3.6453z"/>
  <path d="m2.159 4.9943h0.81c0-1.1167 0.90863-2.0253 2.0253-2.0253v-0.81009c-1.5632 0-2.8353 1.2721-2.8353 2.8353z"/>
 </g>
</svg>
