<?xml version="1.0" encoding="UTF-8"?>
<svg width="50" height="50" space="preserve" version="1.1" viewBox="0 0 50 50" xmlns="http://www.w3.org/2000/svg">
 <link id="dark-mode" href="" rel="stylesheet" type="text/css"/>
 <style id="dark-mode-custom-style" type="text/css"/>
 <path d="m46.462 13.164c-2.2166-3.7978-5.2232-6.8046-9.0207-9.0209-3.7981-2.2165-7.9444-3.3244-12.442-3.3244-4.497 0-8.6447 1.1083-12.442 3.3244-3.7978 2.2162-6.8044 5.2231-9.0209 9.0209-2.2162 3.7977-3.3244 7.9449-3.3244 12.441 0 5.4013 1.5758 10.258 4.7283 14.572 3.1521 4.3142 7.2242 7.2995 12.216 8.9562 0.58105 0.10784 1.0112 0.03199 1.2909-0.22564 0.27978-0.25797 0.41951-0.58105 0.41951-0.96789 0-0.06455-0.0055-0.64526-0.01628-1.7428-0.01108-1.0975-0.01628-2.055-0.01628-2.872l-0.74236 0.12842c-0.47332 0.0867-1.0704 0.12344-1.7913 0.11304-0.72054-0.01006-1.4686-0.08557-2.243-0.22598-0.77481-0.13916-1.4955-0.4619-2.1625-0.96755-0.66674-0.50565-1.1401-1.1675-1.4198-1.9846l-0.32274-0.7427c-0.21512-0.49446-0.5538-1.0437-1.0165-1.6458-0.46269-0.60264-0.93058-1.0112-1.4039-1.2263l-0.22598-0.16177c-0.15058-0.1075-0.2903-0.23717-0.41951-0.38763-0.1291-0.15046-0.22575-0.30104-0.2903-0.45184-0.064661-0.15091-0.011078-0.2747 0.16131-0.3718 0.17239-0.0971 0.48394-0.14424 0.93601-0.14424l0.64526 0.09643c0.43036 0.08625 0.96269 0.34388 1.5977 0.77447 0.63463 0.43025 1.1563 0.98959 1.5652 1.6778 0.49514 0.88242 1.0917 1.5548 1.7913 2.0175 0.69907 0.46269 1.4039 0.69364 2.1138 0.69364 0.70992 0 1.3231-0.05381 1.8397-0.16086 0.51605-0.10762 1.0002-0.26938 1.4523-0.4844 0.19364-1.4422 0.72088-2.5502 1.5813-3.3246-1.2263-0.12887-2.3288-0.32297-3.3081-0.58105-0.97874-0.25842-1.9901-0.67781-3.0335-1.2593-1.044-0.58071-1.91-1.3018-2.5983-2.1621-0.68844-0.86072-1.2534-1.9907-1.6942-3.389-0.44099-1.3988-0.66154-3.0124-0.66154-4.8412 0-2.604 0.85009-4.8199 2.5499-6.6489-0.79628-1.9577-0.72111-4.1523 0.22575-6.5837 0.624-0.19387 1.5494-0.04838 2.7757 0.43556 1.2265 0.48417 2.1246 0.89893 2.695 1.2428 0.57042 0.34377 1.0275 0.63508 1.3718 0.87135 2.0014-0.55923 4.0669-0.8389 6.1969-0.8389s4.1959 0.27967 6.1974 0.8389l1.2264-0.77424c0.83868-0.51661 1.8291-0.99004 2.9688-1.4204 1.1404-0.43013 2.0124-0.5486 2.6152-0.35473 0.96789 2.4315 1.0541 4.626 0.25763 6.5837 1.6997 1.8291 2.5502 4.0455 2.5502 6.6489 0 1.8288-0.22134 3.4475-0.66165 4.8571-0.44087 1.4098-1.0107 2.5386-1.7098 3.389-0.69986 0.85021-1.5714 1.5657-2.6148 2.1463-1.0436 0.58105-2.0554 1.0004-3.0341 1.2589-0.97919 0.25842-2.0817 0.45263-3.308 0.58173 1.1185 0.96789 1.6778 2.4957 1.6778 4.5827v6.8095c0 0.38684 0.13452 0.70981 0.40379 0.96789 0.26893 0.25763 0.69364 0.33348 1.2747 0.22552 4.9924-1.6564 9.0645-4.6418 12.216-8.9561 3.1517-4.3139 4.7281-9.1708 4.7281-14.572-0.0011-4.4959-1.1099-8.6427-3.3251-12.44z" stroke-width=".11304"/>
</svg>
