<?xml version="1.0" encoding="UTF-8"?>
<svg width="50" height="50" version="1.1" viewBox="0 0 50 50" xmlns="http://www.w3.org/2000/svg">
 <path d="m39.883 25.381c-0.51348 0-0.9302 0.41672-0.9302 0.9302s0.41672 0.9302 0.9302 0.9302 0.9302-0.41672 0.9302-0.9302-0.41672-0.9302-0.9302-0.9302z" stroke-width=".20323"/>
 <path d="m47.883 31.602c-4e-3 0-8e-3 0-0.01199 9.4e-5 -1.1641 0.01469-2.8865 0.45841-3.9173 1.3982-1.0694 0.9755-2.3646 1.1667-3.5236 0.56648l8.2261-12.321c0.21282-0.31897 0.20845-0.73561-0.01134-1.0497-0.21961-0.31403-0.60947-0.46119-0.98201-0.37077l-14.598 3.5482-7.3508-8.821c-0.17674-0.21209-0.43859-0.33468-0.71468-0.33468s-0.53785 0.1226-0.71468 0.33468l-7.3508 8.821-14.598-3.5482c-0.37301-0.0906-0.7623 0.05674-0.98201 0.37077-0.21961 0.31403-0.22426 0.73077-0.011442 1.0495l8.2475 12.357c-1.1405 0.55439-2.4073 0.35023-3.4517-0.60193-1.0128-0.92388-2.7505-1.3985-3.9733-1.3985-0.020463 0-0.040835 9.4e-5 -0.060928 4.07e-4 -0.51366 0.0068-0.92462 0.42863-0.91783 0.94238 0.00671 0.51374 0.42733 0.92183 0.94238 0.91783 0.83206-0.01266 2.1227 0.33468 2.7562 0.91262 2.0963 1.9112 4.8332 1.8362 6.8348-9.3e-5 1.3347-1.2171 2.993-1.2171 4.3276 0 2.0441 1.8641 4.7907 1.8641 6.8348 0 1.3347-1.2171 2.993-1.2171 4.3276 0 2.0441 1.8641 4.7907 1.864 6.8352-4.07e-4 1.294-1.1819 2.9513-1.2539 4.33 0.0032 2.125 1.9204 4.8478 1.8072 6.8318-0.0025 0.6037-0.55041 1.865-0.9022 2.6873-0.91262 0.51366-0.0064 0.9249-0.42816 0.9184-0.94183-0.0064-0.50974-0.42156-0.91848-0.92984-0.91848zm-22.884-15.001 6.0518 7.262-3.5708 0.86787c-1.623 0.40614-3.3389 0.40622-4.9682-0.0016l-3.5645-0.86639zm12.377 15.152 1.1807-1.8898c0.27227-0.4357 0.13972-1.0095-0.29598-1.2818-0.43581-0.27208-1.0096-0.13962-1.2817 0.29598l-1.7704 2.8334c-0.86936 0.19153-1.6977 0.63123-2.418 1.2892-1.3347 1.2171-2.993 1.2171-4.3276 0-2.0441-1.8641-4.7907-1.8641-6.8348 0-1.3347 1.2171-2.993 1.2171-4.3276 0-1.8411-1.6791-4.2522-1.8449-6.2081-0.49783l-6.8789-10.306 17.853 4.3392c1.9187 0.48017 3.9469 0.48007 5.8591 0.0016l17.858-4.3408-6.8509 10.261c-0.49161-0.32836-1.0161-0.56427-1.5571-0.70454z" stroke-width=".20323"/>
</svg>
