<?xml version="1.0" encoding="UTF-8"?>
<svg width="50" height="50" version="1.1" viewBox="0 0 50 50" xmlns="http://www.w3.org/2000/svg">
 <path d="m47.424 45.481h-6.5042l2.8847-5.7395c0.18378-0.3657 0.16106-0.80128-0.05963-1.146-0.22088-0.34468-0.6073-0.54671-1.0161-0.53326l-24.768 0.85414v-2.3349l29.847-2.3878c0.4688-0.03755 0.86852-0.35458 1.0118-0.80253 0.14313-0.44794 0.0011-0.93808-0.3586-1.2406l-30.5-25.62v-3.1694c0-0.64023-0.51904-1.1593-1.1593-1.1593s-1.1593 0.51904-1.1593 1.1593v10.9l-8.5685 20.809c-0.13617 0.33078-0.11206 0.70592 0.06539 1.0166 0.17744 0.31052 0.48844 0.52182 0.84255 0.57253l7.6605 1.0943v1.243l-8.773 0.30249c-0.34036 0.01174-0.65831 0.1725-0.86944 0.43974-0.21115 0.26725-0.29414 0.61379-0.22706 0.94766l0.96497 4.7947h-4.4516c-0.64023 0-1.1593 0.51903-1.1593 1.1593 0 0.64023 0.51904 1.1593 1.1593 1.1593h45.137c0.64023 0 1.1593-0.51904 1.1593-1.1593 0-0.64022-0.51904-1.1594-1.1593-1.1594zm-2.6188-13.373-26.845 2.1476v-24.697zm-35.021 2.4664 5.8572-14.224v15.062zm-1.4696 6.9946 32.54-1.1222-2.5303 5.0342h-29.222z" stroke-width="1.4321"/>
</svg>
